<svg id="组件_3_1" data-name="组件 3 – 1" xmlns="http://www.w3.org/2000/svg" width="64.801" height="65" viewBox="0 0 64.801 65">
  <path id="路径_1633" data-name="路径 1633" d="M14.09,39.96A12.52,12.52,0,1,0,26.61,52.48,12.532,12.532,0,0,0,14.09,39.96Zm0,19.841a7.321,7.321,0,1,1,7.321-7.321A7.329,7.329,0,0,1,14.09,59.8ZM11.49,33.54a2.6,2.6,0,1,0,5.2,0V13.464H21.87L14.09,0,6.309,13.464H11.49V33.54ZM66.37,52.48,52.906,44.708v5.173H32.3a2.6,2.6,0,1,0,0,5.2h20.6v5.181Zm-6.62-34.857L63.771,2.6,48.747,6.62l3.665,3.665L24.764,37.933A2.6,2.6,0,0,0,26.6,42.369a2.563,2.563,0,0,0,1.837-.762L56.086,13.958l3.665,3.665Z" transform="translate(-1.57)" fill="#e0e104"/>
</svg>
