<svg id="组件_1_1" data-name="组件 1 – 1" xmlns="http://www.w3.org/2000/svg" width="64.4" height="55.247" viewBox="0 0 64.4 55.247">
  <path id="路径_1628" data-name="路径 1628" d="M809.389,543.8H802.5a2.308,2.308,0,0,0-2.3,2.3v18.4a2.308,2.308,0,0,0,2.3,2.3h6.888a2.307,2.307,0,0,0,2.3-2.3V546.1A2.307,2.307,0,0,0,809.389,543.8Zm-4.041,21.368a.755.755,0,1,1,.755.755A.755.755,0,0,1,805.348,565.168Zm5.594-1.848h-9.994V546.935h9.994Z" transform="translate(-747.289 -513.854)" fill="#e0e104"/>
  <path id="路径_1629" data-name="路径 1629" d="M800.7,418.408a2.315,2.315,0,1,0,2.315-2.308A2.312,2.312,0,0,0,800.7,418.408Z" transform="translate(-747.753 -395.336)" fill="#e0e104"/>
  <path id="路径_1630" data-name="路径 1630" d="M117.246,140.968v.173a2.315,2.315,0,0,0,4.63,0,1.386,1.386,0,0,0-.007-.173h.007V131.9a4.615,4.615,0,0,0-4.6-4.6H68.9a4.615,4.615,0,0,0-4.6,4.6v32.261a4.615,4.615,0,0,0,4.6,4.6H90.622v9.182H79.478a2.3,2.3,0,1,0,0,4.6h27.437a2.3,2.3,0,0,0,0-4.6H95.483v-9.182h14.862v-.007a2.308,2.308,0,0,0,0-4.616H71.238a2.308,2.308,0,0,1-2.3-2.3v-27.6a2.308,2.308,0,0,1,2.3-2.3h43.707a2.308,2.308,0,0,1,2.3,2.3Z" transform="translate(-64.3 -127.3)" fill="#e0e104"/>
</svg>
