<svg id="组件_2_1" data-name="组件 2 – 1" xmlns="http://www.w3.org/2000/svg" width="55.067" height="63" viewBox="0 0 55.067 63">
  <path id="路径_1631" data-name="路径 1631" d="M119.433,25.272,93.908,1.717a1.969,1.969,0,0,0-2.661,0L65.623,25.272a1.984,1.984,0,0,0-.493,2.168A1.927,1.927,0,0,0,67,28.721l13.7-.1V54.345a1.977,1.977,0,0,0,1.971,1.971h19.711a1.977,1.977,0,0,0,1.971-1.971V42.617a1.971,1.971,0,0,0-3.942,0v9.757H84.644V26.651a2.021,2.021,0,0,0-1.971-1.971H72.029l20.5-18.824,20.5,18.922H102.384a2.021,2.021,0,0,0-1.971,1.971v3.844a1.971,1.971,0,0,0,3.942,0V28.721h13.7a2,2,0,0,0,1.38-3.449Zm-9.165,34.986H74.789a1.971,1.971,0,1,0,0,3.942h35.479a1.971,1.971,0,1,0,0-3.942Z" transform="translate(-64.995 -1.2)" fill="#e0e104"/>
  <path id="路径_1632" data-name="路径 1632" d="M448,449.971V461.8a1.971,1.971,0,0,0,3.942,0V449.971a1.971,1.971,0,0,0-3.942,0Z" transform="translate(-424.409 -420.479)" fill="#e0e104"/>
</svg>
